<?xml version="1.0" encoding="utf-8"?>
<!DOCTYPE svg PUBLIC "-//W3C//DTD SVG 20010904//EN" "http://www.w3.org/TR/2001/REC-SVG-20010904/DTD/svg10.dtd">
<svg version="1.0" xmlns="http://www.w3.org/2000/svg" width="18pt" height="18pt" viewBox="0 0 18 18" style="" preserveAspectRatio="xMidYMid meet">
<g fill="#000000FF" stroke="#000000FF">
<path d="M 6.000 11.164 C 5.175 11.960 3.679 12.923 2.676 13.303 C 0.988 13.943 0.973 14.116 2.485 15.628 C 3.997 17.140 4.160 17.102 4.676 15.131 C 4.983 13.959 5.611 13.000 6.073 13.000 C 6.535 13.000 7.045 12.261 7.206 11.358 C 7.463 9.920 7.313 9.896 6.000 11.164 "/></g>
<g fill="#000000FF" stroke="#000000FF">
<path d="M 13.486 2.750 C 13.696 5.171 17.000 5.302 17.000 2.889 C 17.000 1.724 16.297 1.000 15.167 1.000 C 14.030 1.000 13.392 1.665 13.486 2.750 "/></g>
</svg>
